<?xml version="1.0" standalone="no"?>
<!DOCTYPE svg PUBLIC "-//W3C//DTD SVG 20010904//EN"
 "http://www.w3.org/TR/2001/REC-SVG-20010904/DTD/svg10.dtd">
<svg version="1.0" xmlns="http://www.w3.org/2000/svg"
 width="128.000000pt" height="128.000000pt" viewBox="0 0 128.000000 128.000000"
 preserveAspectRatio="xMidYMid meet">

<g transform="translate(0.000000,128.000000) scale(0.100000,-0.100000)"
fill="#355bda" stroke="none">
<path d="M16 1264 c-14 -13 -16 -48 -16 -224 0 -245 -2 -240 94 -240 59 0 64
2 99 38 37 38 37 38 37 125 l0 87 88 0 88 0 37 38 c35 35 37 42 37 99 0 95 5
93 -240 93 -176 0 -211 -2 -224 -16z"/>
<path d="M812 1268 c-7 -7 -12 -41 -12 -81 0 -65 2 -71 34 -103 34 -34 35 -34
125 -34 l91 0 0 -91 c0 -90 0 -91 34 -125 32 -32 38 -34 103 -34 40 0 74 5 81
12 17 17 17 439 0 456 -17 17 -439 17 -456 0z"/>
<path d="M554 943 c-13 -19 -21 -53 -24 -108 l-5 -80 -80 -5 c-55 -3 -89 -11
-107 -24 -26 -17 -28 -23 -28 -86 0 -63 2 -69 28 -86 18 -13 52 -21 107 -24
l80 -5 5 -80 c3 -55 11 -89 24 -107 17 -26 23 -28 87 -28 68 0 69 0 94 37 21
31 25 49 25 105 l0 68 68 0 c56 0 74 4 105 25 37 26 37 26 37 95 0 69 0 69
-37 95 -31 21 -49 25 -105 25 l-68 0 0 68 c0 56 -4 74 -25 105 -25 37 -26 37
-94 37 -64 0 -70 -2 -87 -27z"/>
<path d="M16 464 c-24 -23 -24 -425 0 -448 13 -14 48 -16 224 -16 245 0 240
-2 240 94 0 59 -2 64 -38 99 -38 37 -38 37 -125 37 l-87 0 0 88 0 88 -38 37
c-35 35 -42 37 -99 37 -43 0 -66 -5 -77 -16z"/>
<path d="M1084 446 c-34 -34 -34 -35 -34 -125 l0 -91 -91 0 c-90 0 -91 0 -125
-34 -32 -32 -34 -38 -34 -103 0 -40 5 -74 12 -81 17 -17 439 -17 456 0 17 17
17 439 0 456 -7 7 -41 12 -81 12 -65 0 -71 -2 -103 -34z"/>
</g>
</svg>
